<svg xmlns="http://www.w3.org/2000/svg" aria-label="VolDey" viewBox="0 0 632 205"><path fill-rule="evenodd" d="m195 11.6-55 10C12.1 44.3 11 44.5 10.4 45.1c-.4.5 20.5 148 21.1 148.7.2.2 9.5-.6 20.7-1.8a14245 14245 0 0 1 110.2-11c.3.2-.2 3.3-.9 6.9s-1.2 6.6-1 6.8 24.5-4.5 54.1-10.3L289 170c11.3-2.2 21.4-4.4 22.5-4.9s-10.6-.9-30.7-1c-18 0-32.8-.4-32.8-.8l2-10.3 21.6-101.3.6-2.6H303l-.5 2.3c-.8 3.4-18.5 86.8-18.5 87.3 0 .2 8.4.4 18.8.4h18.7l1.7-7.7c1-4.3 7-32.3 13.3-62.3l12.1-56.4c.6-1.7.2-1.8-3.2-1.1l-17.4 3L258.5 27 221 33.8c-18 3.3-26.6 4.4-26.8 3.7s.9-6.4 2.3-13c3.2-15 3.3-14-1.5-13m1.7 35.6a61 61 0 0 0-35.2 20.8 111 111 0 0 0-14 28.6c-2.3 8.2-3.1 30-1.5 37.4 4.8 21.4 20.9 32.1 46.5 30.9 26.7-1.3 46.7-19.1 54.7-48.6 2.6-9.6 3.6-31.9 1.8-39-5.7-22.7-25.3-34-52.3-30.1M41.1 52.2c0 1.8 3 27.6 6.8 57.3l6.7 54 14.2.3H83l-2-17.3-6-57.2L70.6 49H41zm81.9 3.5L108.5 89l-3.2 7.5-5.7.3-5.6.5c-.3 1-3.8 65.2-3.7 65.4.2.1 7.5-14.2 16.2-31.7l16-32h5.1c3 0 5.6-.5 6.2-1.2 1-1.3 23.2-45.5 23.2-46.3 0-.3-7.2-.5-16-.5h-16zm481.9 17.5-15.8 23q-1.2 1.8-.4 1.4a453 453 0 0 0 23-33.7c-.2 0-3.3 4.2-6.8 9.3m-410 1.5c-11.1 7.2-18.7 25.3-18.8 44.7 0 26.5 25.4 27.8 37.1 1.8 5.6-12.3 7.9-32.7 4.5-40.6-3.7-8.7-14-11.4-22.7-5.9M343 157c-1.6 3.3-3 6.4-3 7q.2 1 15.8.8l15.7-.2-15.2-.3a117 117 0 0 1-15.3-.9l3-6.4c1.7-3.3 2.8-6 2.5-6a29 29 0 0 0-3.5 6m190.1 5.8-.1 2.3 15.7-.3c14.1-.3 15.8-.5 16-2q.3-2-.3-.3c-1 2.4-30 2.2-30.7-.2q-.5-2-.6.5M431 164.2c0 .5 15.5.8 34.5.8s34.5-.3 34.5-.7c0-.5-15.5-.8-34.5-.8s-34.5.3-34.5.8" class="logo-mark-bg"/><path fill-rule="evenodd" d="M351.9 48.8V52q.4 2.9-1 1-1.2-2-.4 1.8.6 3-.3 3.2-1 .1-.5 1.9c.3 1 0 2.2-.5 2.5s-.8 1.5-.5 2.6q.4 1.9-.7 2-1.2 0-.6 2.6.7 2.7-.5 1.9t-.4 2.4c.4 1.7.3 3.1-.3 3.1s-.7 1.2-.5 2.8q.6 3.2-.7 1.2t-.5 1.9q.8 3.6-.5 2.6t-.5 2.5q.8 3.3-.4 2.6-1.1-.8-.4 2.5.7 3.4-.6 2.5-1.3-1-.5 2 .8 2.9-.6 2-1.4-1.2-.5 2.3.6 3-.4 3.1t-.5 2.6q.8 2.9-.6 1.9t-.6 1.9q.5 2.4-.4 2.6-1 .1-.4 2.5t-.5 2.5-.5 2.6q.8 2.9-.6 2-1.4-1.2-.5 2.5t-.5 1.9q-1.2-1.8-.5 2.5.8 4.5-.5 2.5t-.5 1.8q.6 3.1-.4 3.2t-.5 2.6q.7 2.8-.4 2t-.6 2.6q.8 3.8-.6 1.8c-1-1.2-1-.9-.6 1.8.3 1.8.1 3.2-.4 3.2q-1 .2-.4 2.6.8 2.9-.5 2-1-.5-1.1.7.2 1.3 2.3 1.2 2.2-.1 1.9-2-.2-1.6.7-1 1 .4.6-.7c-.3-.8.2-2.2 1-3.3q1.5-1.7 1-.7c-1 2.1.4 1.3 1.6-1q1.2-2 0-1.4-1.2.8 0-1.8 1.2-2.3 2-2t.2-1.2q-.8-1.9.7-1 1.2.8.7-.1c-.8-1.2 5-12.3 6.4-12.3q.8 0 .8-.7c-.3-2 .2-3.4 1-2.8q1 .6.4-1.1t.5-1 .7-.6c-.3-.8.2-2.2 1-3.3q1.5-1.7 1-.6-.7 1.5.3.7t.6-2c-.3-.9.7-2.7 2.3-4.2q2.4-2.4 1.4-2-1.4.9-.9-.5.6-1.3 1.6-1.2t.5-1.4.5-1q1.2.8.5-1-.6-1.6.5-1t.7-.5c-.3-.8.2-2.2 1-3.3q1.5-1.7 1-.6-.7 1.5.3.7t.5-2.3.5-1q1.2.8.5-1-.6-1.6.5-1 1.2.8.5-1-.6-1.6.4-1t1-1 1-1.6.6-1.4.5-1q1.2.8.6-.7-.4-1.7 2.3-4.2 2.4-2.4 1.4-2c-.8.5-.2-1.2 1.3-4l2.7-4.9 6-.1q5.6-.1 5.3.8-.6 1 1.3.4c2.4-.8 8.8 5.7 7.9 8q-.4 1.3.4 1.4c.5 0 .7 1.7.4 3.8q-.5 4 .5 1.7 1-2.4.9 5c0 5.9-.2 6.4-.9 3.5-.6-2.7-.7-2.1-.4 2.8.2 3.4 0 6.4-.5 6.7s-.6 1.4-.3 2.5q.4 1.8-.6 2t-.5 1.4q.3 1.2-1 2-1.5.6-1.6 1.8 0 1.4 1-.2c1.3-2 1.3-.8 0 2.5q-1 2.4-2.2 2-1-.7-.4.3c1 1.5-2.4 7.2-4.2 7.2q-1.1 0-.7 1c.8 1.4-5.6 5.4-8.4 5.2q-3-.3-1.1.9t-2 .4-2 .5c1.1.8 0 1-4.5.5q-5.9-.5-4 .4c1.4.6-.1 1-5.7 1.2-4.2.2-7.4 0-7.1-.3.2-.5 1.2-.8 2.1-.9q1.6 0 .4-.6c-1.8-.7-4.2 1.6-3.5 3.4q.8 1.8-.7.8-1.3-.7-.6.3c.6 1-1.9 7.2-3 7.2q-.3-.2.6-2t.6-2c-.3 0-1.3 1.4-2.2 3.1-.8 1.7-1 2.8-.5 2.4q1.2-.7 0 2-1.2 2.1-2 2-.8-.4-.2 1.1.5 1.6-.3 1.1t-1 1.1c0 1-.4 2.5-.9 3.4-.7 1.7.3 1.8 13.1 1.8 7.7 0 15.7.3 17.8.7 3 .5 3.7.3 3.1-.7s0-1.2 2.9-.7q3.7.6 3-.5t2-.4q3 .8 2-.5-.7-1.2 1.4-.7c1.2.4 2.2.2 2.2-.4q.1-.9 1.6-.4t.8-.6 1.4-.6q2.2.6 1.5-.5-.5-1 1-.4 1.9.7 1-.5-.5-1.2 1-.5 1.9.7 1-.5-.5-1.2 1-.5 1.6.6 1.4-.5 0-1 1.2-1.6 1.4-.5.5 1-1.2 1.5 1 0c1.7-1.6 2.2-2.7.6-1.7-2.4 1.5-.7-.4 1.8-2 2.6-1.8 2.7-1.8 1.2 0q-2.2 2.7.3.6c1-.7 1.7-2 1.7-2.7q0-1.4 1-1.5l2-.3q1-.1 1.1-1.1c.2-2 2-4.5 3-4.2q1 0 1.5-1.8a6 6 0 0 1 2-3.3c1-.7 2-1.8 2-2.5 0-2.3 1.5-5.7 2.4-5.7q.8-.1.3-1.7t.5-1q1.2.8.6-.7-.4-1.5.5-1.6t.5-1.5q-.5-1.3.5-1.5t.5-1.4q-.4-1.4.4-2c.6-.3.8-1.6.4-2.8q-.5-2.1.6-1.4 1 .7.5-2.9c-.3-2-.2-3.5.3-3.5s.9-6.3.9-14c0-7.6-.3-13.2-.8-12.2q-.6 1.5-.2-1.6.5-3.3-.7-2.6-1.2.8-.5-1 .5-1.5-.4-1.6t-.4-1-.5-1-.6-1.6q.6-1.5-.6-.8t-.6-.8c.7-1.8-.7-4.3-2.4-4.3q-1.2-.2-1.3-2 0-1.9-1.6-1.7c-.9.1-2.4-.8-3.5-2q-2.9-3.2.1-.8 2.6 2.1.6-.2-1.2-1.6-2.3-1.2c-.5.3-2-.6-3.4-2-1.8-2-3-2.5-4.5-2q-2.4.7-1.4-.6.8-1.3-1.5-.5t-1.5-.4-2-.5q-3 .8-2.1-.4t-4.1-.7q-5.5.5-1.8-.4c1.9-.6-5-1-18.7-1-12 0-21.9.2-22 .6m102 1q-1.7 2.4.3.5c1.4-1 1.6-.9 1.1 1.3-.2 1.4-.8 2.5-1.3 2.5s-.6 1.2-.3 2.6q.8 2.9-.5 2-1.2-.9-.5 1.8.6 2.5-.5 2.6-1 .1-.5 2.6.7 2.7-.3 2c-1.4-.8-2.5 3.7-1.7 6.9q.6 2.4-.5 2.5-1 .1-.5 2.6.8 2.9-.5 2-1.3-1-.5 2 .8 2.9-.6 2-1.4-1.2-.5 2.3.6 3.1-.5 3.1t-.6 2.5-.4 2.5q-1 .2-.4 2.4c.3 1.3.1 2.7-.4 3s-.8 1.6-.5 2.9q.7 2.7-.7.7t-.5 1.8q.6 3.1-.4 3.2t-.5 2.6q.7 2.8-.4 2t-.6 2.4q.6 3-.5 3-1.2.1-.6 2t-.5 2-.4 2.5-.5 2.5-.5 2.8q.7 3.2-.6 1.2c-.9-1.2-1-.7-.5 2.3.3 2 .2 3.7-.3 3.7s-.7 1.2-.4 2.6q.5 2.9-.7 2-1.3-1-.5 2 .8 2.9-.6 2-1.4-1.1-.5 2.4.7 3.3-.3 2.6-1-.5-1.7.4-.4.9.4 1c.6 0 1.1 1 1.1 2q0 1.9-1 1.5-1.1-.7-.4 2 .6 2.4-.5 2.5-1 .2-1 1.8t.5.7c.3-.6 12-.9 33.1-.7 37.2.3 37.6.3 36.7-3.5q-.8-2.8.6-1.8t.5-2.4c-.4-1.7-.3-3.1.3-3.1s.7-1.2.4-2.6q-.5-2.9.7-2t.5-1.8q-.6-2.6.5-2.6 1-.1.5-2.6-1-3 .7-1.9 1.5.9.4-.3c-1.3-1.5-37.3-2.1-38-.7q-.3.8-.4-.7c0-1 .3-2 .8-2.2s.6-1.8.3-3.2q-.5-2.9.7-2t.5-1.8q-.6-2.5.5-2.6 1-.1.5-2.6-.7-2.7.3-2 1 .3 1.6-1.4.4-1.8-.4-1.4t-.9-.6c0-.8 5.1-1 18.3-.9l18.2.3-.3-2.7c-.1-1.5.2-2.7.8-2.7q1 0 .5-2.1-.7-2.2.4-1.5t.4-2.5q-.7-3.4.6-2.5 1.3 1 .5-2-.8-2.9.6-2 1.4 1.2.5-2.5t.5-1.9.8-1l-.3-2.5h-17.7c-14 0-17.8-.3-17.8-1.3q0-1.1 1-.7t.3-2.6q-.7-3.4.6-2.5 1.3 1 .5-2-.8-2.9.5-2 1.3 1 .6-2.8t.4-3.6q1 0 .8.8c-.3.4 7 .5 16.1.2s17.4-.2 18.3.2c2.2 1 4-1.2 3.2-4q-.4-2 .6-2.2 1-.1.5-3.2-.7-3.7.6-1.8t.5-1.7q-.6-3.2.4-3.3 1.2 0 .5-2.7-.6-3.2.5-1.3c1 1.3 1.2 1.3 2.2 0q1.3-1.9.6.8-.4 2 .4 2.2c.5 0 .6 1.2.3 2.6q-.7 2.7.3 2c1.2-.7 2.7 4 1.7 5.5-1 1.6.5 6 1.8 5.3q1.1-.7.6 1.4c-.4 1.2-.2 2 .3 1.6q.8-.3.9 1.1t-.9 1c-.5-.2-.4 1.3.1 3.6q1 4.4 2 2.7 1-1.4.3 1.5-.6 3 .6 2.2t.4 1.5.5 1.5q1.3-1 .5 2.6-.8 3.7.5 1.9 1.3-2 .5 2t.5 2 .5 1.3q-.6 3 .6 2.1 1.3-.9.5 2-.8 3 .5 2 1.3-.8.6 1-.5 1.5.4 1.6t.5 2.6q-.7 2.7.5 1.8 1.3-.9.5 2-.6 2.7.4 2.1 1-.4 1 1.5t-1 1.5q-1-.6-.4 2 .8 3-.6 2t-.5 2.4q.6 3-.4 3.1-1.2 0-.5 2.8.7 3-.6 1.2-1.3-2-.5 1.8.6 3.1-.4 3.2t-.5 3.3q.6 3.6-.5 1.7-1.2-1.8-.4 2 .8 3.6-.7 2.5-1.4-1-.5 2.5.8 3.4-.5 2.5t-.5 1.5q.6 2.1-.4 3c-.5.3-.8 1.6-.4 2.8.5 2.1.9 2.2 15.4 2.2q15 0 14.9-1c0-.7.7-1.9 1.6-2.7 1.2-1.2 1.4-2.7 1-5.5q-.6-3.7.3-3.4.9.5 1.6-.4.4-.9-.4-1c-.6 0-1.1-1-1.1-2q0-1.9 1-1.5 1 .6.4-2-.8-3 .6-2t.5-2.5q-.8-3.4.4-2.5t.5-2q-.6-2.4.5-2.5 1-.1.5-2.6-.8-2.9.6-2 1.4 1.1.5-2.5c-.5-2.7-.4-3 .5-1.9q1.4 2 .6-1.3c-.7-2.9 1.5-7.3 2.8-6q.7.7.6-.2c-.5-2.3 0-3.6 1.3-2.9q1 .6.5 0c-1-1.2 1.1-4.8 2.4-4q1 .7.3-.6-.7-1.4 2-3.8 2.6-2.1 1.5-1.7t1-1.5q2.1-2 1-1.5t1-1.6q2.3-2.1 1.1-1.4c-1.2.8-1.2.7-.3-1.2a9 9 0 0 1 2.4-2.9q1-.7.3.7-.7 1.2 0 .6 1-1 1-2.5 0-1.6 1.2-1.5t.7-1c-.3-.8.3-2 1.3-2.8q2.5-2.1.3.6-2.1 2.6.2.7 1.5-1.4 1-3-.4-1.5.5-.9t1-1q-.1-1.6 1-1.6 1 0 1-1.5-.1-1.6 1-1.5t.7-1q-.3-1.4 1.2-2.8 2.2-1.8 1 0-.9 1.5.2.7 1-.8.6-2-.4-1.3.7-2.2 1.3-.7.4.6-.7 1.2.3.6 1-.8.6-2-.4-1.3.7-2.2 1.3-.7.4.6t.4.6q1-.8.5-1.8c-.4-.6.6-2.3 2.2-3.7q2.6-2.2 1.5-1.6c-2.2 1.4 2.7-5.5 5.8-8.4q2.2-2 1.4-1.7-1.2.7-.7-.8t-.7-1.7q-1.1 0 .6-.9c1.2-.5-4.7-.9-15.2-1-12 0-17.4.4-17.9 1.2q-.7 1.1.7.4 1.1-.5-1.1 1.4-2.2 2-1.2 1.5 1.3-.6-.8 3.4-2 4-3.2 3.5-1-.6-.4.4c.9 1.5-2 7.3-3.5 7q-1.2-.2-1.6 1.2-.7 2 .6 0c2-2.8 1.1-.3-1.5 4.4a20 20 0 0 1-3 4.6q-.4-.1.1-1t0-1c-.2 0-1 1-1.6 2.1q-1.2 2.3 0 1.5t0 1.8q-1.1 2.3-2 2-.7-.3-1.5.7-.6 1.2.4.5c1.8-1 1.5 0-1 3.9-2.5 3.8-4.3 4.6-3.5 1.5.3-1.1 0-2.3-.5-2.6s-.8-2.4-.4-4.8q.8-4.4-.5-2.6-1.2 2-.6-1.8c.2-1.8 0-3.5-.5-3.8s-.6-2.2-.3-4.2c.5-3 .4-3.4-.5-2.2q-1.3 2-.5-2.2.6-3.8-.6-3.8t-.4-3.6q.8-3.9-.6-2.8-1.3.9-.5-2 .5-2.5-.4-2.6t-.5-1q.4-1-15.4-1-16 0-16.1 1 0 1 1 .6.7-.4.3 1.4c-1 3.6-3 1.7-2.4-2.2 0-.5-15.1-.8-33.8-.8-31 0-34 .1-35.2 1.8m-22.6 43.7c0 3.3.2 4.5.4 2.7s.2-4.5 0-6-.4 0-.4 3.3m-309.6 5.2q-.7.6-.7 1.7 0 1 .8 0c.4-.7 3.2-1.4 6.2-1.7l5.5-.3-5.6-.2c-3-.1-5.9.1-6.2.5m171.6 41c5.3.2 14 .2 19.4 0 5.4-.1 1-.3-9.7-.3s-15.1.2-9.7.3" class="logo-mark-fg"/></svg>